<svg xmlns="http://www.w3.org/2000/svg" viewBox="0 0 60.64 35.17"><defs><style>.cls-1{fill:#fff;}</style></defs><g id="Layer_2" data-name="Layer 2"><g id="Layer_5" data-name="Layer 5"><path class="cls-1" d="M7.53.66V34.17a1,1,0,0,1-1,1H3.24a1,1,0,0,1-1-1V13H1a1,1,0,0,1-.9-1.53L6.31.34A.65.65,0,0,1,7.53.66Z"/><path class="cls-1" d="M14.44,22.67a30.92,30.92,0,0,0,.44,4.54,5.9,5.9,0,0,0,.81,1.69,4.17,4.17,0,0,0,1.41,1.17h2.83l-1.09,5.1H15a7.85,7.85,0,0,1-2.71-2,8.46,8.46,0,0,1-1.74-2.75,14.92,14.92,0,0,1-.95-3.53,29.84,29.84,0,0,1-.28-4.24v-10a29.94,29.94,0,0,1,.28-4.24,14.83,14.83,0,0,1,.95-3.52,8.35,8.35,0,0,1,1.74-2.75A8.39,8.39,0,0,1,15.07,0h7.14V4.92H16.88a4.38,4.38,0,0,0-1.35,1.4A4.36,4.36,0,0,0,14.77,8a38.21,38.21,0,0,0-.33,4.65Z"/><polygon class="cls-1" points="39.84 35.17 34.84 35.17 32.49 23.36 28.14 23.36 28.71 19.61 31.87 19.61 29.84 7.67 27.53 21.51 26.72 26.42 24.84 35.17 19.84 35.17 20.93 30.07 27.34 0 32.34 0 39.84 35.17"/><polygon class="cls-1" points="48.52 16.92 59.39 0 53.14 0 45.64 11.97 45.64 0 40.64 0 40.64 35.17 45.64 35.17 45.64 20.73 54.39 35.17 60.64 35.17 48.52 16.92"/></g></g></svg>